<svg width="48" height="48" viewBox="0 0 48 48" fill="none" xmlns="http://www.w3.org/2000/svg">
<g clip-path="url(#clip0_44_119)">
<path d="M44.444 38.955C43.7735 38.8183 43.0898 38.7559 42.4056 38.769L41.2446 38.7795L40.9611 38.7765C36.4926 38.6895 32.4712 36.081 28.0537 32.937C25.8187 31.347 23.5072 29.7015 22.0088 27.51C20.0558 24.654 19.6073 20.9415 19.4408 18.396C19.3673 17.286 19.3328 16.173 19.2983 15.06C19.2263 12.7155 19.1498 10.29 18.7178 7.89C18.1643 4.8225 17.0258 2.718 15.2363 1.4565C13.4033 0.165 11.1699 0 9.42838 0C8.94839 0 8.46989 0.0135 7.9989 0.03C6.26191 0.0885 2.19395 0.225 0.594966 3.2655C-0.381525 5.121 0.0699711 7.2255 0.368468 8.619L3.65344 23.9475C4.08993 25.98 4.58193 28.284 3.91593 30.2115C3.64894 30.984 3.18544 31.7325 2.69345 32.5245C2.17745 33.3555 1.64496 34.215 1.26846 35.208C0.817005 36.412 0.638922 37.7014 0.747103 38.9827C0.855283 40.264 1.24702 41.5052 1.89395 42.6165C2.55586 43.7253 3.45128 44.6768 4.51797 45.4047C5.58466 46.1325 6.79705 46.6194 8.07089 46.8315C8.57639 46.914 9.10738 46.956 9.65038 46.956C11.3919 46.956 13.0583 46.5345 14.6723 46.128C15.5723 45.9015 16.4228 45.687 17.2703 45.5445C18.1673 45.3945 19.0898 45.3225 20.0888 45.3225C23.0423 45.3225 26.0062 45.9585 29.1442 46.6335C32.2732 47.3055 35.5086 48 38.7291 48C40.4181 48 41.9586 47.814 43.4376 47.4315C44.2955 47.2095 45.551 46.8105 46.547 45.9135C47.72 44.8575 48.2375 43.35 47.897 41.979C47.531 40.503 46.208 39.3435 44.444 38.955ZM44.54 43.6845C44.153 44.0325 43.5636 44.301 42.6861 44.5275C41.3926 44.8532 40.0628 45.012 38.7291 45C35.8266 45 32.8867 44.3685 29.7742 43.701C26.6212 43.023 23.3602 42.324 20.0888 42.324C18.9218 42.324 17.8388 42.4095 16.7768 42.5865C15.8078 42.7485 14.8568 42.9885 13.9373 43.2195C12.4374 43.5975 11.0199 43.956 9.65038 43.956C9.28367 43.9572 8.91747 43.9286 8.55539 43.8705C6.88591 43.5975 5.32442 42.534 4.47993 41.097C4.06351 40.3716 3.81117 39.5637 3.74068 38.7303C3.67019 37.8968 3.78326 37.058 4.07193 36.273C4.34643 35.5515 4.78143 34.8495 5.24342 34.1055C5.79992 33.207 6.37591 32.2785 6.75241 31.191C7.6914 28.473 7.0794 25.6155 6.58741 23.319L3.30244 7.9905C3.02644 6.708 2.81494 5.487 3.24994 4.662C3.94893 3.3345 6.20941 3.0915 8.10089 3.027C8.53889 3.0135 8.98289 3 9.42838 3C10.8069 3 12.3699 3.108 13.5068 3.909C14.6198 4.6935 15.3593 6.1695 15.7643 8.4225C16.1573 10.6065 16.2263 12.8145 16.2983 15.153C16.3343 16.302 16.3703 17.4495 16.4453 18.5925C16.6358 21.489 17.1623 25.74 19.5308 29.2035C21.3323 31.8375 23.9782 33.72 26.3137 35.382C30.2467 38.181 35.1426 41.664 40.9011 41.7765L41.2446 41.7795L42.4056 41.769C42.8376 41.769 43.3416 41.7825 43.7946 41.883C44.39 42.015 44.9015 42.366 44.984 42.7005C45.053 42.972 44.861 43.395 44.54 43.6845Z" fill="#333333"/>
<path d="M29.999 4.5H23.999C23.1706 4.5 22.499 5.17157 22.499 6C22.499 6.82843 23.1706 7.5 23.999 7.5H29.999C30.8274 7.5 31.4989 6.82843 31.4989 6C31.4989 5.17157 30.8274 4.5 29.999 4.5Z" fill="black"/>
<path d="M25.499 3V9C25.499 9.82843 26.1706 10.5 26.999 10.5C27.8274 10.5 28.499 9.82843 28.499 9V3C28.499 2.17157 27.8274 1.5 26.999 1.5C26.1706 1.5 25.499 2.17157 25.499 3Z" fill="black"/>
<path d="M40.499 30C38.9248 30 37.3906 29.5047 36.1137 28.5843C34.8367 27.6639 33.8817 26.365 33.3839 24.8717C32.8861 23.3784 32.8708 21.7663 33.3402 20.2637C33.8095 18.7612 34.7397 17.4445 35.999 16.5V4.5C35.999 3.30653 36.4731 2.16193 37.317 1.31802C38.1609 0.474106 39.3055 0 40.499 0C41.6924 0 42.837 0.474106 43.6809 1.31802C44.5248 2.16193 44.9989 3.30653 44.9989 4.5V16.5C46.2582 17.4445 47.1884 18.7612 47.6577 20.2637C48.1271 21.7663 48.1118 23.3784 47.614 24.8717C47.1162 26.365 46.1612 27.6639 44.8842 28.5843C43.6073 29.5047 42.0731 30 40.499 30ZM40.499 3C40.1011 3 39.7196 3.15804 39.4383 3.43934C39.157 3.72064 38.999 4.10218 38.999 4.5V17.31C39 17.5743 38.9312 17.8342 38.7995 18.0634C38.6678 18.2925 38.4779 18.4828 38.249 18.615C37.5667 19.0089 36.9997 19.5751 36.6049 20.2569C36.2101 20.9386 36.0011 21.7121 35.999 22.5C35.999 23.6935 36.4731 24.8381 37.317 25.682C38.1609 26.5259 39.3055 27 40.499 27C41.6924 27 42.837 26.5259 43.6809 25.682C44.5248 24.8381 44.9989 23.6935 44.9989 22.5C44.9968 21.7121 44.7879 20.9386 44.393 20.2569C43.9982 19.5751 43.4312 19.0089 42.7489 18.615C42.52 18.4828 42.3301 18.2925 42.1984 18.0634C42.0667 17.8342 41.9979 17.5743 41.9989 17.31V4.5C42.0021 4.30676 41.965 4.11498 41.8902 3.93681C41.8153 3.75864 41.7042 3.59797 41.5639 3.465C41.4263 3.32055 41.2612 3.20502 41.0783 3.12517C40.8954 3.04533 40.6985 3.00277 40.499 3Z" fill="black"/>
</g>
<defs>
<clipPath id="clip0_44_119">
<rect width="48" height="48" fill="white"/>
</clipPath>
</defs>
</svg>
