<svg width="48" height="48" viewBox="0 0 48 48" fill="none" xmlns="http://www.w3.org/2000/svg">
<g clip-path="url(#clip0_44_111)">
<path d="M17.0127 22.7336C16.9884 22.6828 16.958 22.6164 16.9458 22.5578C16.8 21.757 16.6602 20.8742 16.5387 20.1126C16.3685 18.9954 16.1741 17.7064 16.0404 16.8002C15.9492 16.1869 15.6454 15.6049 15.2018 15.1674C14.904 14.8901 14.5758 14.6792 14.2052 14.5776C13.9074 14.5034 13.5489 14.4917 13.1721 14.5854C12.6616 14.7104 12.0843 14.9799 11.4463 15.4448C10.8811 15.8588 10.4375 16.4135 10.0729 16.9994C9.55028 17.8587 9.24644 18.7728 9.11882 19.3977C9.10667 19.4407 9.10667 19.472 9.08236 19.5071L5.53955 32.4285C5.48486 32.5965 5.38155 32.7488 5.22356 32.866C4.03249 33.8503 3.28504 34.698 3.06627 35.3815C2.90827 35.8854 3.06627 36.2917 3.58888 36.6081L16.6177 44.9828C17.4441 45.4945 18.4103 45.8148 19.5589 45.9515C20.8168 46.1038 22.2813 46.0179 23.9707 45.7249C23.995 45.7249 24.0375 45.7171 24.0618 45.7171C24.6999 45.6077 25.5385 45.4749 26.3407 45.346C29.8348 44.7992 32.8794 44.3187 35.7051 42.6703L39.3391 40.2329C39.3755 40.19 39.4302 40.1587 39.4849 40.1236C39.5396 40.0884 39.8921 39.8618 40.3721 39.5689C42.8576 38.0064 45.9325 36.0807 44.0608 34.3894L42.6084 33.4558C41.9035 33.8933 41.156 34.323 40.439 34.7331C39.7827 35.1042 39.1689 35.4479 38.6098 35.8112C38.0082 36.1979 37.042 36.1979 36.4404 35.8112C35.8388 35.4245 35.8388 34.8034 36.4404 34.4167C37.0055 34.0535 37.6983 33.6589 38.4154 33.2488C40.8765 31.8543 43.7023 30.2567 42.183 28.8583L40.7428 27.9326C40.6638 27.8818 40.597 27.8232 40.5362 27.7646C39.7098 28.3115 38.7982 28.831 37.9049 29.3388C37.2486 29.7099 36.6349 30.0536 36.0758 30.4169C35.4742 30.8036 34.508 30.8036 33.9063 30.4169C33.3047 30.0302 33.3047 29.4091 33.9063 29.0224C34.4715 28.6591 35.1643 28.2646 35.8813 27.8545C38.3425 26.46 41.1682 24.8624 39.649 23.464L38.2088 22.5382C38.1055 22.4718 38.0265 22.4054 37.9596 22.3273L33.7362 25.0421C33.1346 25.4288 32.1684 25.4288 31.5668 25.0421C30.9651 24.6554 30.9651 24.0343 31.5668 23.6476L42.9001 16.351C44.7961 15.1323 45.2275 13.8628 44.7292 12.9019C44.5469 12.5503 44.2431 12.2378 43.8663 11.9957C43.4896 11.7535 43.0034 11.5582 42.4565 11.441C40.9798 11.1285 39.017 11.4176 37.0663 12.6675L17.195 25.4405C16.5934 25.8272 15.6271 25.8272 15.0255 25.4405C14.4239 25.0538 14.4239 24.4327 15.0255 24.046L17.0431 22.7492L17.0127 22.7336ZM24.7485 0L25.8667 7.78878L22.4575 7.98799L21.3455 0.199212L24.7485 0ZM40.682 3.50378L32.7943 9.60512L30.163 8.19892L38.0508 2.09758L40.682 3.50378ZM9.72043 4.62483L19.097 9.63246L16.9094 11.3238L7.53276 6.31618L9.72043 4.62483ZM40.0622 20.968C40.1777 21.011 40.2871 21.0617 40.3904 21.1281L41.8974 22.0969C41.9764 22.1476 42.0554 22.214 42.1223 22.2726C43.8116 23.7609 43.5503 25.0889 42.3957 26.2998C42.6023 26.3506 42.8029 26.4248 42.9609 26.5264L44.4679 27.4951C44.5469 27.5459 44.6259 27.6123 44.6928 27.6709C46.5098 29.2763 46.054 30.6825 44.6928 31.9598C44.7596 31.9832 44.8082 32.0184 44.8751 32.0613L46.3821 33.0301C46.4611 33.0808 46.5401 33.1472 46.607 33.2058C50.1012 36.276 45.9385 38.8814 42.5902 40.9829L41.7273 41.5376L37.9961 44.0531L37.8806 44.1273C34.4654 46.1194 31.0806 46.6507 27.1671 47.2639C26.5108 47.3655 25.8484 47.4748 24.9308 47.6272C24.9065 47.6272 24.8944 47.635 24.864 47.635C22.7431 48.0061 20.8229 48.0959 19.097 47.8967C17.3469 47.6936 15.8277 47.1897 14.5576 46.3929L1.52275 38.0221C0.204066 37.2057 -0.245621 36.1979 0.125067 35.0026C0.41068 34.0456 1.27359 32.9832 2.63481 31.8426L6.11685 19.179V19.1282C6.27485 18.4056 6.62731 17.3353 7.24107 16.3041C7.70899 15.5307 8.34099 14.7729 9.16136 14.1596C10.158 13.437 11.1363 12.9917 12.1026 12.7534C13.2936 12.4605 14.43 12.4995 15.4388 12.7769C16.3807 13.0308 17.1767 13.4917 17.7784 14.0815C18.5137 14.7885 18.9937 15.6869 19.1274 16.6283C19.2307 17.4017 19.4434 18.679 19.6379 19.9329L19.7959 20.9758L34.8786 11.2808C37.7712 9.42153 40.9069 9.05046 43.4106 9.58169C44.4193 9.79262 45.3065 10.1442 46.0418 10.6168C46.7771 11.0894 47.3241 11.6597 47.6522 12.3081C48.4787 13.9136 47.9135 15.9565 45.0756 17.7845L40.0804 20.9953L40.0622 20.968Z" fill="black"/>
</g>
<defs>
<clipPath id="clip0_44_111">
<rect width="48" height="48" fill="white"/>
</clipPath>
</defs>
</svg>
