<svg width="48" height="48" viewBox="0 0 48 48" fill="none" xmlns="http://www.w3.org/2000/svg">
<g clip-path="url(#clip0_44_83)">
<g clip-path="url(#clip1_44_83)">
<path d="M12.9375 48.3433H-1.9375C-2.21929 48.3433 -2.48954 48.243 -2.6888 48.0644C-2.88806 47.8857 -3 47.6435 -3 47.3909V24.5344C-3 24.2819 -2.88806 24.0396 -2.6888 23.861C-2.48954 23.6824 -2.21929 23.5821 -1.9375 23.5821H12.9375C13.2193 23.5821 13.4895 23.6824 13.6888 23.861C13.8881 24.0396 14 24.2819 14 24.5344V47.3909C14 47.6435 13.8881 47.8857 13.6888 48.0644C13.4895 48.243 13.2193 48.3433 12.9375 48.3433ZM-0.875 46.4386H11.875V25.4868H-0.875V46.4386Z" fill="black"/>
<path d="M38.9998 45.9851H19.4113C17.4524 45.9851 13.8947 45.2171 12.3086 43.7739C12.1157 43.592 12.009 43.3483 12.0114 43.0953C12.0138 42.8424 12.1251 42.6004 12.3215 42.4215C12.5178 42.2427 12.7834 42.1412 13.061 42.139C13.3386 42.1368 13.6061 42.2341 13.8058 42.4098C14.8074 43.3224 17.6896 44.0575 19.4092 44.0575H38.9977C40.4568 44.0575 41.6448 42.9751 41.6448 41.6457C41.6448 40.982 41.3484 40.3607 40.8083 39.8957C40.6617 39.7698 40.5576 39.6083 40.5083 39.4303C40.4591 39.2522 40.4668 39.0651 40.5304 38.8909C40.5941 38.7167 40.7111 38.5627 40.8676 38.447C41.0242 38.3314 41.2138 38.259 41.414 38.2383C42.0582 38.1726 42.6535 37.8936 43.0869 37.4543C43.5202 37.0151 43.7614 36.4461 43.7646 35.8555C43.7646 35.1917 43.4682 34.5705 42.9281 34.1055C42.7815 33.9796 42.6774 33.8181 42.6281 33.64C42.5789 33.462 42.5866 33.2748 42.6502 33.1006C42.7139 32.9264 42.8309 32.7724 42.9874 32.6568C43.144 32.5412 43.3336 32.4688 43.5338 32.4481C44.1777 32.3828 44.7727 32.1041 45.2057 31.6651C45.6387 31.2261 45.8795 30.6574 45.8823 30.0671C45.8823 29.168 45.3275 28.3499 44.4338 27.9332C44.2654 27.8563 44.1227 27.7397 44.0207 27.5955C43.9186 27.4513 43.8609 27.2847 43.8535 27.1132C43.8462 26.9418 43.8895 26.7716 43.9789 26.6206C44.0683 26.4696 44.2005 26.3432 44.3618 26.2546C45.3127 25.7182 45.8823 24.7998 45.8823 23.7965C45.8823 22.2008 44.4571 20.9023 42.7058 20.9023H27.882C27.7109 20.9015 27.5426 20.8631 27.3913 20.7904C27.2399 20.7176 27.1101 20.6127 27.0128 20.4845C26.9156 20.3563 26.8537 20.2085 26.8325 20.0539C26.8112 19.8992 26.8313 19.7421 26.8909 19.5961C26.9121 19.544 28.9409 14.649 28.9409 11.2551C28.9409 8.09657 25.866 5.46674 24.7055 5.46674C23.7928 5.46674 23.0283 5.76966 22.5878 5.99154V12.2198C22.5876 12.359 22.5544 12.4966 22.4904 12.623L16.1373 25.1644C16.0361 25.3629 15.8645 25.5246 15.6503 25.6236L13.5326 26.5884C13.4081 26.645 13.2727 26.6787 13.1339 26.6877C12.9951 26.6966 12.8558 26.6805 12.7239 26.6404C12.5919 26.6003 12.4699 26.5368 12.3649 26.4538C12.2598 26.3707 12.1738 26.2695 12.1116 26.1562C12.0495 26.0428 12.0124 25.9193 12.0026 25.7929C11.9928 25.6665 12.0105 25.5395 12.0545 25.4193C12.0986 25.2991 12.1682 25.188 12.2594 25.0923C12.3505 24.9965 12.4615 24.9181 12.586 24.8615L14.3712 24.0492L20.4701 12.0076V5.46674C20.4701 5.17346 20.6162 4.89755 20.8682 4.71232C21.9815 3.96565 23.3232 3.55481 24.7055 3.53729C27.1556 3.53729 31.0585 7.0701 31.0585 11.2551C31.0585 13.8945 30.0209 17.1804 29.375 18.9728H42.7058C45.624 18.9728 48 21.1377 48 23.7965C48 25.0139 47.5023 26.1562 46.6235 27.0283C47.4939 27.8251 48 28.9075 48 30.0671C47.9993 30.868 47.7543 31.6529 47.2925 32.3343C46.8307 33.0156 46.1702 33.5667 45.3847 33.926C45.944 34.9498 46.0352 36.1339 45.6383 37.2188C45.2414 38.3037 44.3887 39.2011 43.267 39.7144C43.6255 40.3763 43.7931 41.1106 43.754 41.8479C43.7149 42.5852 43.4704 43.3013 43.0434 43.9287C42.6165 44.556 42.0213 45.074 41.3138 45.4338C40.6064 45.7936 39.81 45.9833 38.9998 45.9851Z" fill="black"/>
</g>
</g>
<defs>
<clipPath id="clip0_44_83">
<rect width="48" height="48" fill="white"/>
</clipPath>
<clipPath id="clip1_44_83">
<rect width="48" height="48" fill="white"/>
</clipPath>
</defs>
</svg>
