<svg width="48" height="48" viewBox="0 0 48 48" fill="none" xmlns="http://www.w3.org/2000/svg">
<g clip-path="url(#clip0_44_91)">
<path d="M5.42056 38.9722V46.8868H0.623053C0.457809 46.8868 0.299333 46.9455 0.182488 47.0498C0.065643 47.1542 0 47.2958 0 47.4434C0 47.591 0.065643 47.7326 0.182488 47.837C0.299333 47.9414 0.457809 48 0.623053 48H47.352C47.5173 48 47.6758 47.9414 47.7926 47.837C47.9094 47.7326 47.9751 47.591 47.9751 47.4434C47.9751 47.2958 47.9094 47.1542 47.7926 47.0498C47.6758 46.9455 47.5173 46.8868 47.352 46.8868H42.5545V38.9722C42.5515 35.4893 41.2393 32.1082 38.8284 29.371C36.4174 26.6339 33.0473 24.6993 29.2586 23.8775C33.1019 22.8597 36.4747 20.7605 38.8748 17.8923C41.275 15.0241 42.5743 11.5402 42.5794 7.95918V1.11317H47.3769C47.5422 1.11317 47.7007 1.05453 47.8175 0.950152C47.9344 0.845772 48 0.704202 48 0.556586C48 0.40897 47.9344 0.2674 47.8175 0.16302C47.7007 0.05864 47.5422 0 47.3769 0H0.647976C0.482732 0 0.324255 0.05864 0.20741 0.16302C0.0905651 0.2674 0.0249227 0.40897 0.0249227 0.556586C0.0249227 0.704202 0.0905651 0.845772 0.20741 0.950152C0.324255 1.05453 0.482732 1.11317 0.647976 1.11317H5.44548V7.95918C5.45059 11.5402 6.74991 15.0241 9.15009 17.8923C11.5503 20.7605 14.923 22.8597 18.7664 23.8775C14.9684 24.6907 11.587 26.6216 9.16631 29.3596C6.74559 32.0975 5.42626 35.4833 5.42056 38.9722ZM6.66667 7.95918V1.11317H41.3333V7.95918C41.3333 9.9926 40.885 12.0061 40.0139 13.8847C39.1428 15.7634 37.8661 17.4703 36.2565 18.9082C34.647 20.346 32.7362 21.4866 30.6332 22.2647C28.5302 23.0429 26.2762 23.4434 24 23.4434C21.7238 23.4434 19.4698 23.0429 17.3668 22.2647C15.2638 21.4866 13.353 20.346 11.7435 18.9082C10.1339 17.4703 8.85717 15.7634 7.98609 13.8847C7.11501 12.0061 6.66667 9.9926 6.66667 7.95918ZM22.8037 24.5566H25.1963C29.4746 24.561 33.5762 26.0812 36.6014 28.7837C39.6267 31.4862 41.3284 35.1503 41.3333 38.9722V46.8868H6.66667V38.9722C6.67161 35.1503 8.37335 31.4862 11.3986 28.7837C14.4238 26.0812 18.5254 24.561 22.8037 24.5566Z" fill="black"/>
</g>
<defs>
<clipPath id="clip0_44_91">
<rect width="48" height="48" fill="white"/>
</clipPath>
</defs>
</svg>
