<svg width="48" height="48" viewBox="0 0 48 48" fill="none" xmlns="http://www.w3.org/2000/svg">
<path d="M46.4998 10.8001C46.0386 8.63246 45.189 6.4379 43.344 4.79737C42.0655 3.65706 40.35 2.83948 38.5132 2.38228C36.9838 2.00038 35.325 1.85515 33.7794 2.17788C30.0814 2.94705 28.9405 6.28192 28.3821 9.02511C28.0989 10.429 27.9452 11.849 28.018 13.269C28.1798 16.3511 28.9405 19.3686 29.96 22.3323C30.8259 24.8603 31.2628 27.4744 31.2628 30.0939V42.7395C31.2628 45.6333 34.2568 48 37.9144 48H38.6831C42.3406 48 45.3346 45.6333 45.3346 42.7395V28.6954V29.2064C45.5207 27.3884 45.6421 25.5757 46.0386 23.7792C46.9773 19.4762 47.4061 15.0924 46.4998 10.8001Z" fill="#F3D1C6"/>
<path d="M37.4267 46C35.1664 46 33.3309 44.6028 33.3309 42.8891V30.4932C33.3309 27.7356 32.8531 24.9938 31.905 22.347C30.7521 19.1254 30.1529 16.4469 30.0164 13.916C29.9557 12.756 30.0619 11.5275 30.3577 10.1672C31.0252 7.02469 32.1174 5.46399 33.8922 5.11072C34.2487 5.03691 34.6431 5 35.0526 5C35.7277 5 36.4558 5.09491 37.2219 5.27945C38.7236 5.64326 40.013 6.25489 40.946 7.05633C42.1898 8.1214 43.0317 9.71373 43.5248 11.9177C44.2832 15.366 44.1391 19.1887 43.0545 23.9498C42.7056 25.4736 42.5539 26.9922 42.4098 28.4579L42.3415 29.117H42.296V42.8839C42.296 44.5975 40.4605 45.9947 38.2003 45.9947H37.4267V46Z" fill="#EDB5A6"/>
<path d="M3.52562 10.8001C4.01276 8.63246 4.90447 6.4379 6.84477 4.79737C8.19059 3.65706 9.99053 2.83948 11.9308 2.38228C13.5409 2.00038 15.283 1.85515 16.9178 2.17788C20.8149 2.94705 22.0121 6.28192 22.5984 9.02511C22.9038 10.429 23.0607 11.849 22.9782 13.269C22.813 16.3511 22.0121 19.3686 20.9388 22.3323C20.0223 24.8603 19.5682 27.4744 19.5682 30.0939V42.7395C19.5682 45.6333 16.4142 48 12.5666 48H11.7574C7.90987 48 4.75585 45.6333 4.75585 42.7395V28.6954V29.2064C4.55769 27.3884 4.43384 25.5757 4.02101 23.7792C3.03022 19.4762 2.56785 15.0924 3.52562 10.8001Z" fill="#F3D1C6"/>
<path d="M12.0506 46C14.4696 46 16.4305 44.6028 16.4305 42.8891V30.4932C16.4305 27.7356 16.9448 24.9938 17.9574 22.347C19.195 19.1254 19.8379 16.4469 19.9826 13.916C20.0469 12.756 19.9344 11.5275 19.621 10.1672C18.9057 7.02469 17.7404 5.46399 15.8358 5.11072C15.45 5.03691 15.0321 5 14.5901 5C13.8668 5 13.0873 5.09491 12.2595 5.27945C10.6522 5.64326 9.26993 6.25489 8.26536 7.05633C6.9313 8.1214 6.03121 9.71373 5.50884 11.9177C4.69715 15.366 4.84984 19.1887 6.01514 23.9498C6.38482 25.4736 6.54555 26.9922 6.70628 28.4579L6.77861 29.117H6.82683V42.8839C6.82683 44.5975 8.79578 45.9947 11.2067 45.9947H12.0506V46Z" fill="#EDB5A6"/>
<path d="M33.5895 1.08762C34.5979 1.08762 35.6719 1.20549 36.7786 1.43587C38.9265 1.88057 40.7793 2.64137 42.132 3.64326C43.9109 4.95591 45.0505 6.77218 45.7227 9.36533C46.6983 13.1586 46.5097 17.343 45.1407 22.54C44.7226 24.1152 44.5422 25.7064 44.3618 27.2441L44.2881 27.8549H44.2225V42.5083C44.2225 44.9354 41.2056 46.907 37.4918 46.907H36.5245C32.8107 46.907 29.7938 44.9354 29.7938 42.5083V29.3176C29.7938 26.478 29.22 23.6544 28.0886 20.9327C26.6294 17.4234 25.8669 14.4927 25.6948 11.712C25.6128 10.3994 25.7522 9.02244 26.1293 7.50084C27.0802 3.67005 28.8018 1.74127 31.7286 1.23764C32.3106 1.1412 32.9337 1.08762 33.5895 1.08762ZM33.5895 0C32.8189 0 32.0483 0.0589351 31.3023 0.187521C26.6293 0.991182 25.1947 4.47371 24.4815 7.33475C24.1207 8.79741 23.9322 10.2815 24.0224 11.7656C24.2273 14.9856 25.1865 18.1306 26.4736 21.2274C27.5721 23.8687 28.1214 26.5905 28.1214 29.3283V42.5083C28.1214 45.5301 31.9007 48 36.5245 48H37.4918C42.1156 48 45.8949 45.5301 45.8949 42.5083V27.8549V28.3907C46.1326 26.494 46.2884 24.5974 46.7803 22.7275C47.969 18.2377 48.5183 13.6622 47.3623 9.18853C46.7803 6.92756 45.7063 4.63445 43.3781 2.91997C41.7712 1.72519 39.6069 0.87867 37.2869 0.396473C36.0982 0.150017 34.8356 0 33.5895 0Z" fill="black"/>
<path d="M33.9448 2.1806C33.4285 2.1806 32.945 2.2181 32.5024 2.29311H32.4942H32.486H32.4778H32.4697H32.4615H32.4533H32.4451H32.4123H32.4041H32.3959H32.3877H32.3795H32.3713H32.3631H32.3549H32.3467C32.3385 2.29311 32.3303 2.29847 32.3221 2.29847H32.3139H32.3058H32.2976H32.2894H32.2812H32.273C32.2566 2.30383 32.2484 2.30383 32.232 2.30919H32.2238H32.2156H32.2074H32.1992H32.191C32.1746 2.31454 32.1582 2.31454 32.1418 2.3199H32.1255C31.8878 2.37884 31.6583 2.45385 31.4453 2.54493H31.4371C31.4207 2.55564 31.3961 2.561 31.3797 2.57172H31.3715H31.3633C31.3469 2.57707 31.3305 2.58779 31.3141 2.59315H31.3059H31.2978H31.2896H31.2814C31.2732 2.5985 31.2568 2.60386 31.2486 2.60922H31.2404H31.2322H31.224H31.2158H31.2076L31.1994 2.61458L31.183 2.62529H31.1748H31.1666H31.1584H31.1502H31.142H31.1339H31.1257L31.1093 2.63601H31.1011H31.0929L31.0847 2.64137L31.0765 2.64672L31.0683 2.65208L31.0601 2.65744C31.0519 2.6628 31.0437 2.6628 31.0437 2.66816H31.0355L31.0273 2.67351H31.0191L32.1746 3.45574C32.4451 3.2843 32.7237 3.17714 33.0597 3.11821C33.3629 3.06463 33.7071 3.03784 34.0759 3.03784V2.1806H33.9448ZM29.208 4.76303C28.9785 5.18094 28.7655 5.65777 28.577 6.18819V6.34892C28.5196 6.50966 28.4704 6.67575 28.4131 6.85255L30.0521 7.0615C30.2816 6.3007 30.5438 5.64706 30.8388 5.11664L29.208 4.76303ZM27.8558 9.02779C27.8148 9.27425 27.782 9.51535 27.7575 9.75109V9.85289C27.7165 10.3083 27.7001 10.7583 27.7083 11.1923L29.3801 11.1762C29.3637 10.5172 29.4129 9.84753 29.5276 9.12423L27.8558 9.02779ZM29.5604 13.2765L27.8968 13.3836C27.905 13.4158 27.905 13.4479 27.9132 13.4801V13.8069C27.9869 14.2623 28.0853 14.7231 28.1918 15.1946C28.1918 15.2053 28.2 15.216 28.2 15.2267V15.5321L29.8472 15.3606C29.798 14.6588 29.6587 13.9569 29.5604 13.2765ZM30.5766 17.4609L28.9458 17.6913C29.167 18.3771 29.4293 19.0843 29.7161 19.8129L31.3305 19.5397C31.0519 18.8271 30.7979 18.1252 30.5766 17.4609ZM32.1746 21.6881L30.5438 21.9292C30.5684 21.9935 30.5848 22.0578 30.6094 22.1221C30.6094 22.1275 30.6094 22.1328 30.6176 22.1382C30.6176 22.1435 30.6176 22.1489 30.6258 22.1543C30.6258 22.1596 30.6258 22.165 30.6339 22.1703C30.6339 22.1757 30.6339 22.181 30.6421 22.1864C30.6421 22.1918 30.6421 22.1971 30.6503 22.2025V22.2078C30.6503 22.2132 30.6503 22.2185 30.6585 22.2239V22.2293C30.6585 22.2346 30.6585 22.24 30.6667 22.24V22.6632C30.6667 22.6686 30.6667 22.674 30.6749 22.674V22.7329C30.6749 22.7383 30.6749 22.7436 30.6831 22.749V23.3008C30.6831 23.3062 30.6831 23.3115 30.6913 23.3169C30.6913 23.3222 30.6913 23.3276 30.6995 23.333L30.8962 24.0723L32.5434 23.9009C32.65 23.1615 32.4287 22.4168 32.1746 21.6881ZM33.2564 26.1351L31.5928 26.2369C31.6174 26.4351 31.6501 26.6333 31.6665 26.8316V26.8959C31.6665 26.9119 31.6665 26.928 31.6747 26.9441V26.9762C31.7239 27.4531 31.7649 27.9299 31.7813 28.4067L33.4531 28.3746C33.4367 27.6352 33.3629 26.8798 33.2564 26.1351ZM33.4859 30.5927H31.814V32.7733H33.4859V30.5927ZM33.4859 34.9593H31.814V37.1399H33.4859V34.9593ZM33.4859 39.3258H31.814V41.5064H33.4859V39.3258ZM33.6989 43.2798L32.1337 43.6602C32.2402 43.8424 32.3631 44.0192 32.5188 44.1853C32.527 44.1906 32.5352 44.2014 32.5352 44.2067V44.2174C32.5434 44.2228 32.5434 44.2282 32.5516 44.2335V44.2442C32.5598 44.2496 32.5598 44.2549 32.568 44.2603V44.2764C32.568 44.2817 32.5762 44.2871 32.5844 44.2924V44.3085C32.5844 44.3139 32.5926 44.3139 32.5926 44.3192V44.3353C32.5926 44.3407 32.6008 44.3407 32.6008 44.346C32.6008 44.3514 32.609 44.3514 32.609 44.3567C32.609 44.3621 32.6172 44.3621 32.6172 44.3675V44.3835L32.6254 44.3889L32.6336 44.3942L32.6418 44.3996V44.4157L32.6499 44.421V44.4425L32.6581 44.4478V44.4639L32.6745 44.4746V44.4853L32.6827 44.4907L32.6991 44.5014V44.5121C32.7073 44.5175 32.7155 44.5228 32.7155 44.5282V44.5389C32.7237 44.5443 32.7319 44.5496 32.7319 44.555L32.7401 44.5603L32.7483 44.5657C32.7565 44.571 32.7647 44.5764 32.7647 44.5818L32.7729 44.5871C33.1089 44.8443 33.5022 45.064 33.9448 45.2461L34.8298 44.3192C34.4529 44.1371 33.9612 43.7406 33.6989 43.2798ZM39.6814 44.3782C39.1323 44.6086 38.5013 44.7318 37.8457 44.7318H37.4031V45.8248H38.5422H39.0585C39.0667 45.8248 39.0667 45.8248 39.0749 45.8194H39.1405C39.1487 45.8194 39.1487 45.8194 39.1569 45.814H39.1651C39.1733 45.814 39.1733 45.814 39.1815 45.8087C39.1897 45.8087 39.1979 45.8033 39.206 45.8033C39.2142 45.8033 39.2142 45.8033 39.2224 45.798C39.2306 45.798 39.2388 45.7926 39.247 45.7926C39.5584 45.7122 39.8535 45.6104 40.1321 45.4979L39.6814 44.3782ZM42.9102 41.4528H41.2384V42.5083C41.2384 42.7601 41.1729 43.0119 41.0418 43.2477L42.6152 43.612C42.6398 43.5638 42.6644 43.5209 42.689 43.4727V43.462C42.689 43.4566 42.6972 43.4513 42.6972 43.4459V43.4406V43.4352V43.4298V43.4191V43.4138V43.4084V43.3977V43.387V43.3816V43.3763V43.3709V43.3656V43.3602C42.6972 43.3548 42.6972 43.3548 42.7054 43.3495V43.3441V43.3388V43.3334C42.7054 43.3281 42.7054 43.3227 42.7136 43.3173V43.312V43.3066C42.7136 43.3013 42.7136 43.2959 42.7218 43.2905V43.2852V43.2798C42.7218 43.2691 42.7299 43.2638 42.7299 43.253C42.7463 43.1941 42.7709 43.1405 42.7791 43.0816C42.7873 43.0655 42.7873 43.0494 42.7955 43.028C42.7955 43.0173 42.8037 43.0066 42.8037 42.9959C42.8037 42.9905 42.8037 42.9798 42.8119 42.9744V42.9691V42.9637V42.9477V42.9423V42.9369V42.9155V42.9101V42.9048V42.8887V42.8834V42.878V42.8726V42.8566V42.8512V42.8459V42.8405V42.8298V42.8244V42.8191V42.8137V42.803V42.7923V42.7869V42.7816V42.7762V42.7655V42.7601V42.7548V42.7441V42.7387V42.7333V42.728V42.7226V42.7173V42.7119V42.7066V42.6958V42.6905V42.6851V42.6798V42.6744V42.6637V42.6583V42.653V42.6476V42.6315V42.6262V42.6208V42.6155V42.6048V42.5994V42.594V42.5887V41.4528H42.9102ZM42.9102 37.0916H41.2384V39.2722H42.9102V37.0916ZM42.9102 32.7251H41.2384V34.9057H42.9102V32.7251ZM42.9102 28.3639H41.2384V30.5445H42.9102V28.3639ZM41.8203 23.9223C41.6728 24.7367 41.5744 25.535 41.5007 26.1351L43.1643 26.2208C43.2053 25.8779 43.2462 25.535 43.2954 25.1921V25.176V25.16V25.1546V25.1385V25.1332V25.1171V25.1064V25.0903V25.0796V25.0635V25.0474C43.3446 24.7153 43.3938 24.3831 43.4593 24.0509L41.8203 23.9223ZM42.8037 19.5933C42.6726 20.2737 42.5087 20.9863 42.3284 21.7149L43.9756 21.8917C44.033 21.6613 44.0903 21.431 44.1477 21.2059C44.1559 21.1845 44.1559 21.1631 44.1641 21.1363V21.1309V21.1149V21.0988V21.0827V21.072V21.0506V21.0345V21.0184V21.0077V21.0023V20.9916C44.2379 20.6702 44.3116 20.3487 44.3772 20.0326V20.0272V20.0112V19.9951V19.9844V19.9683V19.9522V19.9362V19.9201C44.3936 19.8558 44.4018 19.7915 44.4181 19.7218L42.8037 19.5933ZM43.3282 15.3499C43.2954 16.0304 43.238 16.7429 43.1479 17.4716L44.8115 17.5627C44.9099 16.8126 44.9672 16.0893 45 15.3821L43.3282 15.3499ZM44.7459 11.0262L43.0905 11.1441C43.2053 11.8245 43.2872 12.5264 43.32 13.239L44.9918 13.2015C44.9672 12.7675 44.9344 12.3442 44.8771 11.9263V11.8942V11.8728V11.862V11.8567V11.8406V11.8352V11.8192V11.787V11.7763V11.7602V11.7442V11.7281V11.7174V11.712V11.6906V11.6799V11.6745V11.6584V11.6531V11.637V11.6209V11.6049V11.5888C44.8771 11.5781 44.8771 11.5674 44.8689 11.5566C44.8033 11.3798 44.7787 11.203 44.7459 11.0262ZM43.3528 6.77218L41.7875 7.15258C42.1071 7.7205 42.3858 8.36879 42.607 9.09209L44.246 8.87778C44.1805 8.66883 44.1149 8.45987 44.0412 8.26164C44.0412 8.25092 44.033 8.24556 44.033 8.23485C44.033 8.22949 44.0248 8.22413 44.0248 8.21877C44.0248 8.21342 44.0248 8.20806 44.0166 8.2027V8.19734V8.18127V8.17056V8.15984V8.15448V8.13841V8.05804V8.04733V8.03661C44.0166 8.03125 44.0084 8.0259 44.0084 8.02054C44.0084 8.01518 44.0002 8.00982 44.0002 8.00446C43.8691 7.67228 43.7216 7.35082 43.5577 7.05079C43.4347 6.92756 43.3938 6.84719 43.3528 6.77218ZM39.4191 3.33787L38.4931 4.24869C39.0667 4.49514 39.5666 4.77911 39.9928 5.08985C40.1567 5.20772 40.3124 5.33631 40.4599 5.47561L41.8121 4.83804C41.6318 4.67195 41.4351 4.51658 41.2384 4.36656L41.2302 4.3612L41.222 4.35584V4.35049V4.34513L41.2139 4.33977L41.2057 4.33441L41.1975 4.32905L41.1893 4.3237C41.1811 4.31834 41.1729 4.31298 41.1729 4.30762C41.1729 4.30762 41.1729 4.30227 41.1647 4.30227L41.1565 4.29691L41.1483 4.29155L41.1401 4.28619L41.1319 4.28084L41.1237 4.27548C41.1237 4.27548 41.1237 4.27012 41.1155 4.27012L41.0991 4.2594C41.0991 4.2594 41.0991 4.25405 41.0909 4.25405C41.0909 4.25405 41.0909 4.24869 41.0827 4.24869L41.0745 4.24333L41.0663 4.23797L41.0581 4.23262L41.0499 4.22726C41.0499 4.22726 41.0499 4.2219 41.0418 4.2219L41.0172 4.20583L41.009 4.20047L41.0008 4.19511L40.9926 4.18975L40.9844 4.1844L40.9762 4.17904L40.968 4.17368C40.968 4.17368 40.968 4.16832 40.9598 4.16832L40.9434 4.15761L40.9352 4.15225L40.927 4.14689L40.9188 4.14153L40.9106 4.13618L40.9024 4.13082L40.8942 4.12546L40.886 4.1201L40.8697 4.10939L40.8615 4.10403L40.8533 4.09867L40.8451 4.09331L40.8369 4.08796V4.0826L40.8287 4.07724L40.8205 4.07188L40.8123 4.06653L40.8041 4.06117L40.7959 4.05581L40.7877 4.05045L40.7713 4.03974L40.7631 4.03438C40.7549 4.02902 40.7467 4.02902 40.7467 4.02366L40.7385 4.01831L40.7303 4.01295L40.7221 4.00759L40.7139 4.00223L40.7058 3.99687L40.6976 3.99152L40.6894 3.98616L40.6648 3.97009L40.6566 3.96473L40.6484 3.95937L40.6402 3.95401L40.632 3.94866L40.6238 3.9433L40.6156 3.93794L40.5746 3.91115C40.5746 3.91115 40.5664 3.91115 40.5664 3.90579L40.5582 3.90043C40.5582 3.90043 40.55 3.90044 40.55 3.89508C40.55 3.89508 40.5419 3.89508 40.5419 3.88972C40.3042 3.75042 40.0501 3.61648 39.7879 3.49325C39.7879 3.49325 39.7797 3.49325 39.7797 3.48789C39.7797 3.48789 39.7715 3.48789 39.7715 3.48253C39.7715 3.48253 39.7633 3.48253 39.7633 3.47717C39.7633 3.47717 39.7551 3.47717 39.7551 3.47182C39.7469 3.46646 39.7387 3.4611 39.7223 3.45574L39.7141 3.45039H39.7059H39.6978H39.6896H39.6814H39.6732H39.665C39.6568 3.45039 39.6568 3.44503 39.6486 3.44503H39.6404H39.6322H39.624H39.6158H39.6076H39.5994L39.5912 3.43967C39.583 3.43431 39.5666 3.42895 39.5584 3.4236C39.5584 3.4236 39.5502 3.4236 39.5502 3.41824C39.5502 3.41824 39.542 3.41824 39.542 3.41288C39.542 3.41288 39.5339 3.41288 39.5339 3.40752C39.5339 3.40752 39.5257 3.40752 39.5257 3.40217C39.4683 3.3593 39.4437 3.34859 39.4191 3.33787ZM33.9448 2.1806V3.27358C34.5512 3.27358 35.215 3.34323 35.928 3.47717L36.3951 2.43241C36.0018 2.35741 35.6166 2.29847 35.2396 2.25561C35.1659 2.25025 35.0921 2.23954 35.0183 2.23418H34.9938C34.9692 2.23418 34.9446 2.22882 34.92 2.22882H34.879C34.8544 2.22882 34.838 2.22346 34.8135 2.22346H34.7643C34.7479 2.22346 34.7397 2.22346 34.7233 2.2181H34.502H34.4037H34.3955H34.3381H34.3054H34.2972H34.289H34.2808H34.2398H34.2316H34.2234H34.2152H34.207H34.1988H34.1906H34.1824H34.1742H34.1497H34.1415H34.1333H34.1251H34.1169H34.0841H34.0759H34.0677H34.0595C33.953 2.1806 33.953 2.1806 33.9448 2.1806ZM14.4076 1.08762C15.0632 1.08762 15.6942 1.13584 16.2679 1.23764C19.1854 1.74127 20.9145 3.67005 21.8652 7.50084C22.2421 9.02244 22.3815 10.3994 22.2995 11.712C22.1274 14.4873 21.3653 17.418 19.9065 20.9327C18.7756 23.6544 18.2019 26.478 18.2019 29.3176V42.5083C18.2019 44.9354 15.1861 46.907 11.4738 46.907H10.5067C6.79434 46.907 3.77853 44.9354 3.77853 42.5083V27.8549H3.72117L3.64741 27.2441C3.46712 25.7064 3.28683 24.1152 2.86888 22.54C1.50029 17.343 1.3118 13.1586 2.28702 9.36533C2.95083 6.77218 4.08995 4.95591 5.87648 3.64326C7.23688 2.64672 9.08897 1.88057 11.2279 1.43587C12.326 1.20549 13.3996 1.08762 14.4076 1.08762ZM14.4076 0C13.1619 0 11.9081 0.150017 10.7116 0.396473C8.39239 0.87867 6.22888 1.73055 4.61444 2.91997C2.28702 4.63445 1.21346 6.92756 0.631606 9.18853C-0.515711 13.6676 0.0333627 18.2377 1.21346 22.7275C1.70517 24.6027 1.86087 26.4994 2.09853 28.3907V27.8603V42.5083C2.09853 45.5301 5.87648 48 10.4985 48H11.4656C16.0876 48 19.8656 45.5301 19.8656 42.5083V29.3176C19.8656 26.5798 20.4146 23.858 21.5128 21.2167C22.7994 18.1199 23.7582 14.9749 23.9631 11.7549C24.0533 10.2708 23.8648 8.79205 23.5042 7.32403C22.8076 4.46836 21.3653 0.991182 16.694 0.182163C15.9483 0.0535775 15.1779 0 14.4076 0Z" fill="black"/>
<path d="M14.8519 2C14.029 2 13.1414 2.10282 12.2055 2.29763H12.1974H12.1894H12.1813H12.1652C12.1571 2.29763 12.141 2.30304 12.1329 2.30304C12.1168 2.30845 12.1006 2.30845 12.0764 2.31386H12.0603C12.0522 2.31386 12.0441 2.31927 12.0361 2.31927H12.028H12.0199H12.0119H11.9715C11.8586 2.34633 11.7537 2.36797 11.6488 2.39503L12.2216 3.42861C12.383 3.39073 12.5363 3.35285 12.7057 3.31497C13.4803 3.15263 14.2065 3.06604 14.86 3.06604L14.8519 2ZM8.7926 3.49895C8.77646 3.50978 8.75225 3.5206 8.73612 3.53142L8.72805 3.53683L8.71998 3.54225L8.70384 3.55307C8.70384 3.55307 8.69577 3.55307 8.69577 3.55848L8.68771 3.56389L8.67964 3.5693L8.67157 3.57471L8.6635 3.58013H8.65543H8.64737H8.6393L8.63123 3.58554L8.62316 3.59095L8.61509 3.59636L8.60703 3.60177L8.59896 3.60718L8.59089 3.61259C8.58282 3.61801 8.57475 3.62342 8.55861 3.62883C8.55861 3.62883 8.55055 3.62883 8.55055 3.63424C8.55055 3.63424 8.54248 3.63424 8.54248 3.63965C8.52634 3.64506 8.51827 3.65588 8.50213 3.6613C8.50213 3.6613 8.49407 3.6613 8.49407 3.66671C8.49407 3.66671 8.486 3.66671 8.486 3.67212C8.46986 3.67753 8.46179 3.68835 8.44566 3.69376C8.44566 3.69376 8.43759 3.69376 8.43759 3.69918C8.42145 3.70459 8.41338 3.71541 8.39725 3.72082C8.39725 3.72082 8.38918 3.72082 8.38918 3.72623C8.38918 3.72623 8.38111 3.72623 8.38111 3.73164C8.37304 3.73706 8.36497 3.74247 8.34884 3.74788L8.34077 3.75329L8.3327 3.7587C8.3327 3.7587 8.32463 3.7587 8.32463 3.76411C8.31656 3.76952 8.30849 3.77494 8.30043 3.77494L8.29236 3.78035L8.28429 3.78576L8.27622 3.79117C8.26815 3.79658 8.26008 3.79658 8.26008 3.80199L8.25202 3.8074L8.24395 3.81282L8.23588 3.81823L8.22781 3.82364L8.21974 3.82905H8.21167H8.20361L8.19554 3.83446L8.18747 3.83987L8.1794 3.84528L8.17133 3.85069L8.16327 3.85611L8.1552 3.86152L8.14713 3.86693L8.13099 3.87775L8.12292 3.88316L8.11486 3.88857L8.10679 3.89399L8.08258 3.91022L8.07451 3.91563L8.06644 3.92104L8.03417 3.94269L8.0261 3.9481C7.95349 3.9968 7.88087 4.04551 7.80826 4.09962L7.80019 4.10503L7.76792 4.12668L7.75985 4.13209L7.75178 4.1375L7.72757 4.15373C7.72757 4.15373 7.72758 4.15914 7.71951 4.15914C7.71951 4.15914 7.71951 4.16456 7.71144 4.16456C7.71144 4.16456 7.71144 4.16997 7.70337 4.16997L7.6953 4.17538L7.68723 4.18079V4.22949L7.67917 4.2349V4.24573C7.66303 4.25655 7.64689 4.27278 7.63075 4.28361L7.62269 4.28902V4.30525L7.61462 4.31066V4.31607C7.37257 4.52171 7.14665 4.74357 6.93688 4.97626L8.34077 5.54446C8.59896 5.25766 8.88135 4.9925 9.18794 4.76522C9.46227 4.55959 9.76886 4.36478 10.1077 4.1862L8.7926 3.49895ZM5.32321 7.16246C5.1215 7.59538 4.93593 8.06075 4.77456 8.5586C4.77456 8.56401 4.77456 8.56943 4.76649 8.57484V8.58025C4.76649 8.58566 4.76649 8.59107 4.75842 8.59648V8.60189C4.75842 8.60731 4.75842 8.61272 4.75036 8.61813V8.62354C4.75036 8.62895 4.75035 8.63436 4.74229 8.63977V8.7967C4.74229 8.80753 4.73422 8.81294 4.73422 8.82376C4.73422 8.83458 4.72615 8.83999 4.72615 8.85082C4.68581 8.99151 4.64547 9.13762 4.60513 9.28373L6.22686 9.47313C6.4205 8.73718 6.65448 8.06617 6.93688 7.47633L5.32321 7.16246ZM4.13716 11.4916L4.08875 11.8974V12.2113C4.04034 12.6983 4.00807 13.1908 4 13.694L5.64594 13.7157C5.66208 12.9959 5.72663 12.2816 5.81538 11.5944L4.13716 11.4916ZM5.64594 15.8477L4.00807 15.8964C4.01614 16.075 4.03227 16.2536 4.04841 16.4322V17.1952C4.04841 17.206 4.04841 17.2222 4.05648 17.2331V17.2439C4.08875 17.5253 4.12103 17.8067 4.16137 18.0935L5.79924 17.9907C5.7589 17.2547 5.68628 16.535 5.64594 15.8477ZM6.243 20.1282L4.61319 20.2797C4.65354 20.4853 4.70194 20.6963 4.75036 20.9074V20.9561C4.75842 20.9832 4.75842 21.0102 4.76649 21.0373V21.086L4.7907 21.1834V21.2158C4.87138 21.573 4.96013 21.9356 5.05695 22.3035V22.3522C5.05695 22.3576 5.05695 22.3631 5.06502 22.3685C5.06502 22.3847 5.07309 22.3955 5.07309 22.4118V22.4226C5.07309 22.4334 5.08116 22.4442 5.08116 22.4605L6.7029 22.2765L6.67869 22.1899C6.54153 21.481 6.38016 20.7938 6.243 20.1282ZM7.19506 24.5276L5.55719 24.6413C5.57333 24.7224 5.58139 24.8036 5.59753 24.8848V25.4854C5.65401 25.9346 5.71049 26.3783 5.7589 26.8166L7.39677 26.73C7.39677 26.0212 7.30802 25.2798 7.19506 24.5276ZM7.6711 29.0028H6.02515V31.2053H7.6711V29.0028ZM7.6711 33.4077H6.02515V35.6101H7.6711V33.4077ZM7.6711 37.818H6.02515V40.0204H7.6711V37.818ZM7.6711 42.2229H6.02515V43.2727C6.03322 43.2943 6.03322 43.3159 6.04129 43.3322V43.343C6.04936 43.3647 6.05743 43.3917 6.0655 43.4134C6.17039 43.7489 6.34789 44.0735 6.58994 44.3658L8.0261 43.83C7.75178 43.4999 7.60655 43.1211 7.60655 42.7423V42.2229H7.6711ZM9.69625 44.7933L9.05078 45.8052C9.1234 45.8268 9.19601 45.8485 9.26863 45.8647C9.2767 45.8647 9.2767 45.8647 9.28477 45.8701H9.54295C9.84148 45.9297 10.1561 45.9729 10.4708 46H10.729H10.85H10.8581H11.9231C12.0119 46 12.1006 46 12.1813 45.9946L12.0764 44.8961C12.0038 44.9015 11.9312 44.9015 11.8666 44.9015H10.9146C10.5515 44.9772 10.1077 44.9123 9.69625 44.7933ZM15.2473 43.1536C15.1101 43.6352 14.7309 44.0844 14.1742 44.4145L15.2634 45.2424C15.6103 45.0368 15.9089 44.8041 16.159 44.5443V44.5389V44.5335C16.1671 44.5281 16.1671 44.5227 16.1751 44.5173C16.1832 44.5119 16.1913 44.501 16.1913 44.4956V44.4902V44.4848C16.1913 44.4794 16.1993 44.474 16.1993 44.474V44.4686V44.4632V44.4578C16.1993 44.4523 16.2074 44.4469 16.2074 44.4469V44.4415V44.4361V44.4307C16.2074 44.4253 16.2155 44.4253 16.2155 44.4199V44.4145V44.409V44.4036C16.2155 44.3982 16.2235 44.3928 16.2235 44.3928V44.3874V44.382V44.3766C16.2235 44.3712 16.2316 44.3712 16.2316 44.3658V44.3603V44.3549V44.3495V44.3333V44.3279V44.3225V44.3171V44.3116V44.3062V44.3008V44.2954V44.29V44.2792C16.2316 44.2738 16.2397 44.2738 16.2397 44.2684V44.2629C16.2397 44.2629 16.2397 44.2575 16.2477 44.2575V44.2521C16.2477 44.2467 16.2558 44.2467 16.2558 44.2413V44.2359V44.2305V44.2251V44.2197C16.2558 44.2142 16.2639 44.2142 16.2639 44.2088V44.2034V44.198V44.1926C16.2639 44.1872 16.272 44.1818 16.272 44.1764V44.1709V44.1655V44.1601C16.272 44.1547 16.28 44.1493 16.28 44.1439V44.1385V44.1331C16.2881 44.1277 16.2881 44.1222 16.2962 44.1114V44.106C16.3042 44.1006 16.3042 44.0898 16.3123 44.0844C16.3204 44.079 16.3204 44.0681 16.3284 44.0627V44.0573C16.3365 44.0519 16.3365 44.0411 16.3446 44.0357C16.3526 44.0248 16.3526 44.0194 16.3607 44.0086C16.4656 43.8246 16.5463 43.6352 16.6028 43.435L15.2473 43.1536ZM16.9497 38.9544H15.3038V41.1622H16.9497V38.9544ZM16.9497 34.5495H15.3038V36.7519H16.9497V34.5495ZM16.9497 30.1392H15.3038V32.3417H16.9497V30.1392ZM15.6103 25.6207C15.4893 26.3729 15.4006 27.1359 15.3522 27.8881L16.99 27.9368C17.0384 27.2008 17.1191 26.4703 17.2402 25.7398L15.6103 25.6207ZM16.7964 21.1401C16.5301 21.8706 16.2881 22.6228 16.0944 23.3696L17.7162 23.5644C17.7243 23.5373 17.7323 23.5103 17.7404 23.4778C17.7404 23.467 17.7485 23.4562 17.7485 23.4453V23.4291C17.7485 23.4237 17.7485 23.4183 17.7565 23.4129V23.3966V23.3804V23.3642V23.3479V23.3425V23.3263V23.31V23.3046V23.2884V23.2722V23.2668V23.2505V23.2451V23.2289V23.2235V23.2072V23.2018V23.1856V23.1802V23.1639V23.1477V23.1423V23.1261V23.1098V23.1044V23.0882V23.0828V23.0665V23.0611V23.0449V23.0287V23.0124C17.7565 23.007 17.7565 23.0016 17.7646 22.9962C17.7646 22.9908 17.7646 22.9854 17.7727 22.98C17.7727 22.9745 17.7727 22.9691 17.7807 22.9637C17.7807 22.9583 17.7807 22.9529 17.7888 22.9475C17.7888 22.9421 17.7888 22.9367 17.7969 22.9312C17.9502 22.4063 18.1196 21.8869 18.3132 21.3674L16.7964 21.1401ZM18.3294 16.903C18.1277 17.574 17.8856 18.2829 17.6194 19.008L19.2169 19.2732C19.2734 19.1162 19.3299 18.9593 19.3863 18.8078C19.3863 18.8024 19.3863 18.7969 19.3944 18.7915C19.3944 18.7807 19.4025 18.7699 19.4025 18.7591C19.4025 18.7537 19.4025 18.7482 19.4105 18.7428V18.7374C19.4105 18.732 19.4105 18.7266 19.4186 18.7212V18.7158V18.6995V18.6833V18.6671V18.6508V18.6346V18.6238V18.613V18.5967V18.5805V18.5588V18.5426V18.5264V18.5047V18.4939V18.4777V18.4614V18.4452V18.4344V18.4182V18.4019V18.3911V18.3749V18.364V18.3478V18.3316V18.3153V18.2991V18.2829C19.4186 18.2775 19.4186 18.272 19.4267 18.272V18.2666V18.2504C19.4267 18.245 19.4267 18.2396 19.4347 18.2342C19.4347 18.2288 19.4347 18.2233 19.4428 18.2179C19.4428 18.2125 19.4428 18.2071 19.4509 18.2017C19.4509 18.1963 19.4509 18.1909 19.4589 18.1855C19.4589 18.18 19.4589 18.1746 19.467 18.1692C19.467 18.1638 19.467 18.1584 19.4751 18.153C19.4751 18.1422 19.4832 18.1313 19.4832 18.1205C19.5961 17.785 19.701 17.4549 19.7978 17.1302L18.3294 16.903ZM19.2411 12.6713C19.1604 13.3585 19.0394 14.0674 18.8861 14.7871L20.5078 14.944C20.6692 14.2027 20.7902 13.4776 20.879 12.7741V12.7578L19.2411 12.6713ZM20.7499 8.36379L19.1201 8.50449C19.2572 9.23503 19.3379 9.91686 19.3541 10.5825L21 10.5608C20.9919 10.3877 20.9839 10.2145 20.9758 10.0359V9.97639V9.96556V9.95474V9.94392V9.93309V9.92227V9.90604C20.9758 9.8898 20.9758 9.86816 20.9677 9.85192V9.83028C20.9112 9.34325 20.8467 8.86164 20.7499 8.36379ZM19.2008 4.09421L17.7 4.54335C18.0308 5.0412 18.3294 5.67974 18.5795 6.43734L20.1851 6.19383C19.9915 5.62022 19.7817 5.11155 19.5396 4.66781C19.5316 4.65699 19.5316 4.65158 19.5235 4.64076V4.63535V4.61911V4.6137V4.60829V4.60288V4.59747V4.59205V4.58664V4.53253C19.5235 4.52712 19.5154 4.52712 19.5154 4.52171V4.51088C19.3702 4.35395 19.2895 4.21867 19.2008 4.09421ZM14.8519 2V3.10392C15.215 3.10392 15.5539 3.13098 15.8524 3.18509C16.0299 3.21756 16.1913 3.26085 16.3446 3.32579L17.2079 2.38962H17.1998H17.1917L17.1837 2.38421H17.1756H17.1675H17.1595H17.1514H17.1433H17.1353H17.1272H17.1191C17.1191 2.38421 17.1111 2.38421 17.1111 2.3788H17.103C17.103 2.3788 17.0949 2.3788 17.0949 2.37339H17.0869H17.0788H17.0707H17.0626H17.0546H17.0465H17.0384H17.0304H17.0223H17.0142H17.0062H16.9981H16.99H16.982H16.9739H16.9658H16.9578H16.9497H16.9416H16.9336C16.9336 2.37339 16.9255 2.37339 16.9255 2.36797C16.9174 2.36797 16.9174 2.36256 16.9094 2.36256C16.9013 2.36256 16.9013 2.35715 16.8932 2.35715C16.8932 2.35715 16.8851 2.35715 16.8851 2.35174C16.748 2.31386 16.6108 2.28139 16.4656 2.25434H16.4575H16.4495H16.4414C15.8363 2.03788 15.3602 2 14.8519 2Z" fill="black"/>
</svg>
