<svg width="38" height="38" viewBox="0 0 38 38" fill="none" xmlns="http://www.w3.org/2000/svg">
<g clip-path="url(#clip0_44_229)">
<path d="M19 38C29.4934 38 38 29.4934 38 19C38 8.50659 29.4934 0 19 0C8.50659 0 0 8.50659 0 19C0 29.4934 8.50659 38 19 38Z" fill="url(#paint0_linear_44_229)"/>
<path d="M7.07599 19.9293C9.29709 18.7059 11.7764 17.6848 14.093 16.6585C18.0784 14.9775 22.0797 13.3256 26.1213 11.7877C26.9076 11.5256 28.3205 11.2695 28.4591 12.4348C28.3831 14.0843 28.0711 15.7242 27.8571 17.364C27.3138 20.9702 26.6857 24.5641 26.0735 28.1584C25.8624 29.3556 24.3627 29.9754 23.403 29.2093C21.0967 27.6513 18.7727 26.1088 16.4959 24.5147C15.7501 23.7569 16.4417 22.6685 17.1077 22.1273C19.0072 20.2554 21.0217 18.6649 22.8219 16.6962C23.3075 15.5236 21.8727 16.5119 21.3995 16.8148C18.799 18.6068 16.2622 20.5082 13.5205 22.0832C12.12 22.8541 10.4878 22.1953 9.08793 21.7649C7.83283 21.2454 5.99362 20.7218 7.07583 19.9295L7.07599 19.9293Z" fill="white"/>
</g>
<defs>
<linearGradient id="paint0_linear_44_229" x1="25.3349" y1="6.3346" x2="15.8349" y2="28.5" gradientUnits="userSpaceOnUse">
<stop stop-color="#37AEE2"/>
<stop offset="1" stop-color="#1E96C8"/>
</linearGradient>
<clipPath id="clip0_44_229">
<rect width="38" height="38" fill="white"/>
</clipPath>
</defs>
</svg>
