<svg width="38" height="38" viewBox="0 0 38 38" fill="none" xmlns="http://www.w3.org/2000/svg">
<g clip-path="url(#clip0_44_233)">
<path d="M38 19C38 8.50659 29.4934 0 19 0C8.50659 0 0 8.50659 0 19C0 29.4934 8.50659 38 19 38C29.4934 38 38 29.4934 38 19Z" fill="#675DA9"/>
<path d="M28.3049 9.64614C27.6764 9.06839 25.132 7.21836 19.4604 7.19301C19.4604 7.19301 12.775 6.78753 9.51592 9.77796C7.70138 11.5925 7.06275 14.2434 6.99686 17.5379C6.93097 20.8273 6.8448 26.9958 12.7902 28.6683H12.7952L12.7902 31.2178C12.7902 31.2178 12.7547 32.2518 13.4339 32.4596C14.255 32.713 14.7416 31.9274 15.5272 31.0809C15.958 30.6146 16.551 29.9355 17.0021 29.4134C21.0671 29.753 24.1944 28.9725 24.5491 28.8559C25.3702 28.5872 30.0181 27.9942 30.7733 21.8259C31.5539 15.48 30.3931 11.4607 28.3049 9.64614ZM28.9942 21.3798C28.3556 26.5294 24.5897 26.8538 23.8953 27.0768C23.6013 27.1731 20.8542 27.8574 17.3974 27.6292C17.3974 27.6292 14.8226 30.7363 14.0219 31.5422C13.8951 31.6689 13.7481 31.7195 13.6518 31.6942C13.5149 31.6588 13.4744 31.4965 13.4795 31.2583C13.4795 30.9137 13.4997 27.016 13.4997 27.016C13.4947 27.016 13.4947 27.016 13.4997 27.016C8.46673 25.6221 8.76067 20.3712 8.81649 17.624C8.87222 14.8769 9.38918 12.6214 10.9249 11.1059C13.6772 8.61223 19.359 8.98217 19.359 8.98217C24.1538 9.00244 26.4498 10.447 26.9821 10.9285C28.751 12.449 29.6532 16.0731 28.9942 21.3798Z" fill="white"/>
<path d="M21.7968 17.7202C21.6296 17.7202 21.4876 17.5884 21.4775 17.4161C21.4217 16.3264 20.9099 15.7942 19.8657 15.7385C19.6883 15.7283 19.5514 15.5763 19.5616 15.3988C19.5717 15.2214 19.7238 15.0846 19.9012 15.0948C21.2798 15.1708 22.0502 15.9615 22.1212 17.3806C22.1313 17.558 21.9945 17.7101 21.8171 17.7152C21.807 17.7202 21.8019 17.7202 21.7968 17.7202Z" fill="white"/>
<path d="M23.4389 18.2678H23.4338C23.2564 18.2627 23.1146 18.1158 23.1196 17.9383C23.145 16.8435 22.8307 15.9566 22.1616 15.2266C21.4977 14.4968 20.5803 14.1015 19.3689 14.0153C19.1915 14.0001 19.0597 13.848 19.0749 13.6706C19.0901 13.4932 19.2422 13.3615 19.4196 13.3767C20.7881 13.478 21.8677 13.9544 22.6381 14.7958C23.4136 15.6423 23.7887 16.7016 23.7633 17.9535C23.7583 18.131 23.6113 18.2678 23.4389 18.2678Z" fill="white"/>
<path d="M25.1217 18.9265C24.9443 18.9265 24.8023 18.7846 24.8023 18.6072C24.7871 16.6457 24.2245 15.1505 23.079 14.0303C21.9488 12.9254 20.5144 12.3628 18.8266 12.3476C18.6492 12.3476 18.5072 12.2006 18.5072 12.0232C18.5072 11.8458 18.6543 11.7039 18.8266 11.7039C20.6867 11.7191 22.2681 12.3425 23.52 13.5691C24.777 14.7957 25.4207 16.4885 25.441 18.5971C25.446 18.7795 25.3041 18.9265 25.1217 18.9265C25.1268 18.9265 25.1268 18.9265 25.1217 18.9265ZM19.9417 21.6888C19.9417 21.6888 20.3928 21.7294 20.636 21.4303L21.1074 20.8373C21.3355 20.5433 21.888 20.3557 22.4252 20.6548C22.7243 20.822 23.2666 21.1566 23.6011 21.4049C23.961 21.6685 24.6909 22.2767 24.6959 22.2818C25.0456 22.5758 25.1268 23.0066 24.8886 23.4679C24.8886 23.4679 24.8886 23.4729 24.8886 23.478C24.6452 23.9088 24.3158 24.3143 23.9052 24.6893C23.9002 24.6893 23.9002 24.6944 23.8951 24.6944C23.5555 24.9783 23.221 25.1404 22.8966 25.176C22.856 25.1861 22.8104 25.1861 22.7496 25.1861C22.6077 25.1861 22.4657 25.1658 22.3239 25.1202L22.3137 25.105C21.8068 24.9631 20.9654 24.6083 19.5666 23.8327C18.6543 23.331 17.899 22.8191 17.2553 22.3071C16.9158 22.0385 16.5711 21.7395 16.2163 21.3847C16.2061 21.3745 16.1909 21.3593 16.1808 21.3492C16.1706 21.3391 16.1554 21.3239 16.1453 21.3137C16.1352 21.3036 16.12 21.2884 16.1098 21.2783C16.0997 21.2681 16.0845 21.2529 16.0744 21.2427C15.7246 20.888 15.4205 20.5433 15.1519 20.2037C14.64 19.5651 14.1281 18.8048 13.6263 17.8925C12.8508 16.4885 12.496 15.6471 12.3541 15.1453L12.3389 15.1352C12.2932 14.9933 12.2729 14.8514 12.2729 14.7094C12.2729 14.6486 12.2729 14.603 12.2831 14.5625C12.3237 14.233 12.4858 13.9035 12.7647 13.564C12.7647 13.5589 12.7697 13.5589 12.7697 13.5538C13.1447 13.1382 13.5502 12.8138 13.981 12.5705C13.981 12.5705 13.9861 12.5705 13.9912 12.5705C14.4473 12.3323 14.8782 12.4134 15.1773 12.7631C15.1773 12.7631 15.7906 13.4981 16.0541 13.8579C16.3025 14.1975 16.6369 14.7348 16.8042 15.0338C17.1033 15.5711 16.9158 16.1236 16.6217 16.3517L16.0288 16.823C15.7297 17.0663 15.7702 17.5174 15.7702 17.5174C15.7702 17.5174 16.6471 20.8525 19.9417 21.6888Z" fill="white"/>
</g>
<defs>
<clipPath id="clip0_44_233">
<rect width="38" height="38" fill="white"/>
</clipPath>
</defs>
</svg>
